<svg width="12" height="16" viewBox="0 0 12 16" fill="none" xmlns="http://www.w3.org/2000/svg">
<path d="M2 0C0.896875 0 0 0.896875 0 2V14C0 15.1031 0.896875 16 2 16H10C11.1031 16 12 15.1031 12 14V5H8C7.44688 5 7 4.55312 7 4V0H2ZM8 0V4H12L8 0ZM2.5 2H4.5C4.775 2 5 2.225 5 2.5C5 2.775 4.775 3 4.5 3H2.5C2.225 3 2 2.775 2 2.5C2 2.225 2.225 2 2.5 2ZM2.5 4H4.5C4.775 4 5 4.225 5 4.5C5 4.775 4.775 5 4.5 5H2.5C2.225 5 2 4.775 2 4.5C2 4.225 2.225 4 2.5 4ZM3 7H9C9.55313 7 10 7.44688 10 8V10C10 10.5531 9.55313 11 9 11H3C2.44688 11 2 10.5531 2 10V8C2 7.44688 2.44688 7 3 7ZM3 8V10H9V8H3ZM7.5 13H9.5C9.775 13 10 13.225 10 13.5C10 13.775 9.775 14 9.5 14H7.5C7.225 14 7 13.775 7 13.5C7 13.225 7.225 13 7.5 13Z" fill="white"/>
</svg>
