<svg width="24" height="24" viewBox="0 0 24 24" fill="none" xmlns="http://www.w3.org/2000/svg">
<g clip-path="url(#clip0_491_11565)">
<path d="M7.12971 1.79061C7.59377 2.2078 7.63127 2.91561 7.21409 3.37967L3.83909 7.12967C3.63284 7.35936 3.34221 7.4953 3.03284 7.49999C2.72346 7.50467 2.42815 7.38749 2.20784 7.17186L0.328149 5.29686C-0.107788 4.85624 -0.107788 4.14374 0.328149 3.70311C0.764087 3.26249 1.48127 3.26249 1.91721 3.70311L2.95315 4.73905L5.53596 1.8703C5.95315 1.40624 6.66096 1.36874 7.12502 1.78592L7.12971 1.79061ZM7.12971 9.29061C7.59377 9.7078 7.63127 10.4156 7.21409 10.8797L3.83909 14.6297C3.63284 14.8594 3.34221 14.9953 3.03284 15C2.72346 15.0047 2.42815 14.8875 2.20784 14.6719L0.328149 12.7969C-0.112476 12.3562 -0.112476 11.6437 0.328149 11.2078C0.768774 10.7719 1.48127 10.7672 1.91721 11.2078L2.95315 12.2437L5.53596 9.37499C5.95315 8.91092 6.66096 8.87342 7.12502 9.29061H7.12971ZM10.5 4.49999C10.5 3.6703 11.1703 2.99999 12 2.99999H22.5C23.3297 2.99999 24 3.6703 24 4.49999C24 5.32967 23.3297 5.99999 22.5 5.99999H12C11.1703 5.99999 10.5 5.32967 10.5 4.49999ZM10.5 12C10.5 11.1703 11.1703 10.5 12 10.5H22.5C23.3297 10.5 24 11.1703 24 12C24 12.8297 23.3297 13.5 22.5 13.5H12C11.1703 13.5 10.5 12.8297 10.5 12ZM7.50002 19.5C7.50002 18.6703 8.17034 18 9.00002 18H22.5C23.3297 18 24 18.6703 24 19.5C24 20.3297 23.3297 21 22.5 21H9.00002C8.17034 21 7.50002 20.3297 7.50002 19.5ZM2.25002 17.25C2.84676 17.25 3.41906 17.487 3.84101 17.909C4.26297 18.3309 4.50002 18.9032 4.50002 19.5C4.50002 20.0967 4.26297 20.669 3.84101 21.091C3.41906 21.5129 2.84676 21.75 2.25002 21.75C1.65329 21.75 1.08099 21.5129 0.659034 21.091C0.237077 20.669 2.44007e-05 20.0967 2.44007e-05 19.5C2.44007e-05 18.9032 0.237077 18.3309 0.659034 17.909C1.08099 17.487 1.65329 17.25 2.25002 17.25Z" fill="#2563EB"/>
</g>
<defs>
<clipPath id="clip0_491_11565">
<path d="M0 0H24V24H0V0Z" fill="white"/>
</clipPath>
</defs>
</svg>
