<svg width="40" height="40" viewBox="0 0 40 40" fill="none" xmlns="http://www.w3.org/2000/svg">
<circle cx="20" cy="20" r="20" fill="#DCFAF8"/>
<path d="M20.0001 18.1279C20.3545 18.1279 20.6438 18.4165 20.6438 18.7708C20.6438 19.0942 20.9067 19.3563 21.23 19.3563C21.5526 19.3563 21.8154 19.0942 21.8154 18.7708C21.8154 17.9765 21.2979 17.3062 20.5855 17.0611V16.7289C20.5855 16.4063 20.3235 16.1428 20.0001 16.1428C19.676 16.1428 19.414 16.4063 19.414 16.7289V17.0611C18.7016 17.3062 18.1856 17.9765 18.1856 18.7708C18.1856 19.7726 18.9991 20.5861 20.0001 20.5861C20.3545 20.5861 20.6438 20.8755 20.6438 21.2299C20.6438 21.585 20.3545 21.8736 20.0001 21.8736C19.6458 21.8736 19.3571 21.585 19.3571 21.2299C19.3571 20.9065 19.0943 20.6437 18.771 20.6437C18.4469 20.6437 18.1856 20.9065 18.1856 21.2299C18.1856 22.0242 18.7016 22.6938 19.414 22.9389V23.2711C19.414 23.5951 19.676 23.858 20.0001 23.858C20.3235 23.858 20.5855 23.5951 20.5855 23.2711V22.9389C21.2979 22.6938 21.8154 22.0242 21.8154 21.2299C21.8154 20.2288 21.0011 19.4146 20.0001 19.4146C19.6458 19.4146 19.3571 19.1259 19.3571 18.7708C19.3571 18.4165 19.6458 18.1279 20.0001 18.1279ZM24.9086 23.2534C25.1957 23.4047 25.5494 23.2947 25.7 23.0097C26.1872 22.0892 26.4441 21.0483 26.4441 20C26.4441 16.4477 23.5525 13.5568 20.0001 13.5568C16.447 13.5568 13.5561 16.4477 13.5561 20C13.5561 23.5531 16.447 26.444 20.0001 26.444C21.0329 26.444 22.059 26.1944 22.9678 25.7212C23.255 25.5729 23.3664 25.2178 23.2173 24.9313C23.0682 24.6456 22.7146 24.532 22.4267 24.6818C21.6744 25.0746 20.8572 25.2731 20.0001 25.2731C17.093 25.2731 14.727 22.9079 14.727 20C14.727 17.0936 17.093 14.7276 20.0001 14.7276C22.9072 14.7276 25.2733 17.0936 25.2733 20C25.2733 20.8585 25.0621 21.7097 24.665 22.4612C24.5129 22.7477 24.6221 23.102 24.9086 23.2534ZM20.0001 11.2122C18.3029 11.2122 16.6552 11.6979 15.2356 12.6155C14.9632 12.7912 14.8857 13.1537 15.0614 13.4254C15.2378 13.697 15.5988 13.7738 15.872 13.5996C17.1004 12.8052 18.5296 12.3845 20.0001 12.3845C24.1999 12.3845 27.6156 15.801 27.6156 20C27.6156 24.1998 24.1999 27.6163 20.0001 27.6163C15.8004 27.6163 12.3838 24.1998 12.3838 20C12.3838 18.5435 12.7965 17.1268 13.5783 15.9051C13.7525 15.6319 13.6728 15.2694 13.3996 15.0952C13.1272 14.921 12.7648 15.0007 12.5913 15.2731C11.6892 16.6839 11.2123 18.3198 11.2123 20C11.2123 24.8464 15.1537 28.7878 20.0001 28.7878C24.8458 28.7878 28.788 24.8464 28.788 20C28.788 15.155 24.8458 11.2122 20.0001 11.2122Z" fill="#16DBCC"/>
</svg>
