<svg width="16" height="16" viewBox="0 0 16 16" fill="none" xmlns="http://www.w3.org/2000/svg">
<g clip-path="url(#clip0_491_11490)">
<path d="M4.75312 1.19374C5.0625 1.47187 5.0875 1.94374 4.80937 2.25312L2.55937 4.75312C2.42187 4.90624 2.22812 4.99687 2.02187 4.99999C1.81562 5.00312 1.61875 4.92499 1.47187 4.78124L0.218748 3.53124C-0.0718765 3.23749 -0.0718765 2.76249 0.218748 2.46874C0.509373 2.17499 0.987499 2.17499 1.27812 2.46874L1.96875 3.15937L3.69062 1.24687C3.96875 0.937491 4.44062 0.912491 4.75 1.19062L4.75312 1.19374ZM4.75312 6.19374C5.0625 6.47187 5.0875 6.94374 4.80937 7.25312L2.55937 9.75312C2.42187 9.90624 2.22812 9.99687 2.02187 9.99999C1.81562 10.0031 1.61875 9.92499 1.47187 9.78124L0.218748 8.53124C-0.0750015 8.23749 -0.0750015 7.76249 0.218748 7.47187C0.512498 7.18124 0.987499 7.17812 1.27812 7.47187L1.96875 8.16249L3.69062 6.24999C3.96875 5.94062 4.44062 5.91562 4.75 6.19374H4.75312ZM7 2.99999C7 2.44687 7.44687 1.99999 8 1.99999H15C15.5531 1.99999 16 2.44687 16 2.99999C16 3.55312 15.5531 3.99999 15 3.99999H8C7.44687 3.99999 7 3.55312 7 2.99999ZM7 7.99999C7 7.44687 7.44687 6.99999 8 6.99999H15C15.5531 6.99999 16 7.44687 16 7.99999C16 8.55312 15.5531 8.99999 15 8.99999H8C7.44687 8.99999 7 8.55312 7 7.99999ZM5 13C5 12.4469 5.44687 12 6 12H15C15.5531 12 16 12.4469 16 13C16 13.5531 15.5531 14 15 14H6C5.44687 14 5 13.5531 5 13ZM1.5 11.5C1.89782 11.5 2.27935 11.658 2.56066 11.9393C2.84196 12.2206 3 12.6022 3 13C3 13.3978 2.84196 13.7793 2.56066 14.0607C2.27935 14.342 1.89782 14.5 1.5 14.5C1.10217 14.5 0.720643 14.342 0.439338 14.0607C0.158034 13.7793 -1.53482e-06 13.3978 -1.53482e-06 13C-1.53482e-06 12.6022 0.158034 12.2206 0.439338 11.9393C0.720643 11.658 1.10217 11.5 1.5 11.5Z" fill="#374151"/>
</g>
<defs>
<clipPath id="clip0_491_11490">
<path d="M0 0H16V16H0V0Z" fill="white"/>
</clipPath>
</defs>
</svg>
