<svg width="40" height="40" viewBox="0 0 40 40" fill="none" xmlns="http://www.w3.org/2000/svg">
<circle cx="20" cy="20" r="20" fill="#FFF5D9"/>
<path d="M23.318 27.5781H14.057C13.5614 27.5776 13.0861 27.3805 12.7356 27.03C12.3852 26.6795 12.188 26.2043 12.1875 25.7086V20.1817C12.188 19.686 12.3852 19.2108 12.7356 18.8603C13.0861 18.5098 13.5614 18.3127 14.057 18.3121H23.318C23.8136 18.3127 24.2889 18.5098 24.6394 18.8603C24.9898 19.2108 25.187 19.686 25.1875 20.1817V25.7086C25.187 26.2043 24.9898 26.6795 24.6394 27.03C24.2889 27.3805 23.8136 27.5776 23.318 27.5781ZM14.057 19.484C13.8721 19.4842 13.6947 19.5578 13.5639 19.6886C13.4332 19.8194 13.3596 19.9967 13.3594 20.1817V25.7086C13.3596 25.8936 13.4332 26.0709 13.5639 26.2017C13.6947 26.3325 13.8721 26.4061 14.057 26.4063H23.318C23.5029 26.4061 23.6803 26.3325 23.8111 26.2017C23.9418 26.0709 24.0154 25.8936 24.0156 25.7086V20.1817C24.0154 19.9967 23.9418 19.8194 23.8111 19.6886C23.6803 19.5578 23.5029 19.4842 23.318 19.484H14.057Z" fill="#FFBB38"/>
<path d="M25.9437 24.4227H24.6015C24.4461 24.4227 24.2971 24.3609 24.1872 24.251C24.0773 24.1412 24.0156 23.9921 24.0156 23.8367C24.0156 23.6813 24.0773 23.5323 24.1872 23.4224C24.2971 23.3125 24.4461 23.2508 24.6015 23.2508H25.9437C26.1286 23.2504 26.3057 23.1767 26.4363 23.0459C26.5669 22.9152 26.6404 22.738 26.6406 22.5531V17.0262C26.6405 16.8413 26.5671 16.664 26.4365 16.5331C26.3058 16.4023 26.1286 16.3285 25.9437 16.3281H16.6828C16.4978 16.3283 16.3205 16.4019 16.1897 16.5327C16.0589 16.6635 15.9853 16.8408 15.9851 17.0258V18.8977C15.9851 19.0531 15.9234 19.2021 15.8135 19.312C15.7036 19.4219 15.5546 19.4836 15.3992 19.4836C15.2438 19.4836 15.0948 19.4219 14.9849 19.312C14.875 19.2021 14.8133 19.0531 14.8133 18.8977V17.0262C14.8137 16.5304 15.0108 16.0551 15.3613 15.7045C15.7118 15.354 16.1871 15.1568 16.6828 15.1562H25.9437C26.4393 15.157 26.9144 15.3543 27.2648 15.7048C27.6151 16.0554 27.8121 16.5306 27.8125 17.0262V22.5531C27.812 23.0487 27.6149 23.5238 27.2646 23.8742C26.9143 24.2247 26.4393 24.4219 25.9437 24.4227Z" fill="#FFBB38"/>
<path d="M24.6016 23.3902H12.7734C12.618 23.3902 12.469 23.3285 12.3591 23.2186C12.2492 23.1087 12.1875 22.9597 12.1875 22.8043V20.8363C12.1875 20.6809 12.2492 20.5319 12.3591 20.422C12.469 20.3121 12.618 20.2504 12.7734 20.2504H24.6016C24.757 20.2504 24.906 20.3121 25.0159 20.422C25.1258 20.5319 25.1875 20.6809 25.1875 20.8363V22.8043C25.1875 22.9597 25.1258 23.1087 25.0159 23.2186C24.906 23.3285 24.757 23.3902 24.6016 23.3902ZM13.3594 22.2183H24.0156V21.4222H13.3594V22.2183Z" fill="#FFBB38"/>
</svg>
