<svg width="40" height="40" viewBox="0 0 40 40" fill="none" xmlns="http://www.w3.org/2000/svg">
<circle cx="20" cy="20" r="20" fill="#E7EDFF"/>
<path d="M26.425 15.9875C26.4151 14.8944 25.9744 13.8494 25.1985 13.0794C24.4227 12.3094 23.3744 11.8766 22.2813 11.875H16.25C16.1002 11.8731 15.9547 11.925 15.84 12.0214C15.7253 12.1177 15.649 12.2521 15.625 12.4L13.4875 25.8062C13.4742 25.895 13.4801 25.9856 13.5049 26.0719C13.5297 26.1582 13.5728 26.2381 13.6313 26.3062C13.6894 26.376 13.7619 26.4322 13.844 26.4711C13.926 26.51 14.0155 26.5305 14.1063 26.5312H16.6875L16.55 27.4C16.5354 27.49 16.5407 27.5822 16.5655 27.67C16.5903 27.7577 16.634 27.839 16.6936 27.9081C16.7531 27.9772 16.8271 28.0324 16.9103 28.0699C16.9934 28.1074 17.0838 28.1262 17.175 28.125H20.0813C20.2302 28.1272 20.3749 28.0761 20.4895 27.981C20.6041 27.8859 20.681 27.753 20.7063 27.6062L21.3313 23.7875H23.3C24.5323 23.7825 25.7124 23.29 26.5826 22.4175C27.4527 21.545 27.9421 20.3635 27.9438 19.1312V18.9562C27.9431 18.3766 27.8052 17.8054 27.5412 17.2893C27.2772 16.7733 26.8947 16.3272 26.425 15.9875ZM16.7813 13.125H22.2813C22.937 13.127 23.5727 13.3512 24.0846 13.7609C24.5965 14.1707 24.9545 14.7419 25.1 15.3812C24.8296 15.3178 24.5527 15.2864 24.275 15.2875H19.0625C18.9127 15.2856 18.7672 15.3375 18.6525 15.4339C18.5378 15.5302 18.4615 15.6646 18.4375 15.8125L18.0688 18.125C18.0422 18.2908 18.0827 18.4603 18.1811 18.5962C18.2796 18.7322 18.428 18.8235 18.5938 18.85C18.7595 18.8765 18.929 18.8361 19.065 18.7376C19.201 18.6392 19.2922 18.4908 19.3188 18.325L19.6063 16.525H24.2875C24.5871 16.5266 24.8838 16.5838 25.1625 16.6937C25.0437 17.6721 24.5716 18.5735 23.8351 19.2283C23.0985 19.8832 22.1481 20.2465 21.1625 20.25H18.2625C18.1136 20.2478 17.9688 20.2989 17.8543 20.394C17.7397 20.4891 17.6628 20.622 17.6375 20.7687L16.875 25.2812H14.8375L16.7813 13.125ZM26.6938 19.1312C26.6921 20.032 26.3344 20.8955 25.6987 21.5336C25.063 22.1717 24.2007 22.5325 23.3 22.5375H20.8C20.6511 22.5353 20.5063 22.5864 20.3918 22.6815C20.2772 22.7766 20.2003 22.9095 20.175 23.0562L19.55 26.875H17.9L18.0375 26.0062L18.7875 21.5125H21.15C22.3168 21.5091 23.4497 21.1198 24.3722 20.4053C25.2946 19.6909 25.9549 18.6913 26.25 17.5625C26.5401 17.9692 26.6953 18.4567 26.6938 18.9562V19.1312Z" fill="#396AFF"/>
</svg>
